<?xml version="1.0" encoding="iso-8859-1"?>
<!-- Generator: Adobe Illustrator 19.0.0, SVG Export Plug-In . SVG Version: 6.00 Build 0)  -->
<svg version="1.1" id="Layer_1" xmlns="http://www.w3.org/2000/svg" xmlns:xlink="http://www.w3.org/1999/xlink" x="0px" y="0px"
	 viewBox="0 0 496 496" style="enable-background:new 0 0 496 496;" xml:space="preserve">
<g>
	<g>
		<path d="M248,0c-25.536,0-88,81.296-88,232c0,152.264,54.632,255.48,56.96,259.792l2.264,4.208h57.552l2.264-4.208
			C281.368,487.48,336,384.264,336,232C336,81.296,273.536,0,248,0z M267.064,480H256v-56h-16v56h-11.064
			c-7.2-14.832-30.968-67.976-44.056-144.712c12.256,18.752,30.816,38.784,59.032,55.592c31.048,18.488,38.528,41.656,40.088,48.312
			C276.68,459.408,270.248,473.448,267.064,480z M291.712,416.248c-6.736-11.936-18.624-26.624-39.608-39.128
			c-63.184-37.616-73.16-92.208-74.56-103.208c-0.664-9.448-1.072-19.168-1.288-29.08c11.448,21.256,31.736,45.52,67.776,66.112
			c51.4,29.376,60.048,58.448,60.2,58.96C300.304,387.032,296.008,402.568,291.712,416.248z M251.968,296.92
			C176.544,253.816,177.464,192,177.536,192h-0.016C185.384,88,221.792,37.504,240,21.248V272h16V21.248
			c20.48,18.28,64,84.768,64,210.752c0,42.04-4.416,80.4-10.728,113.896C300.008,332.72,282.984,314.648,251.968,296.92z"/>
	</g>
</g>
<g>
</g>
<g>
</g>
<g>
</g>
<g>
</g>
<g>
</g>
<g>
</g>
<g>
</g>
<g>
</g>
<g>
</g>
<g>
</g>
<g>
</g>
<g>
</g>
<g>
</g>
<g>
</g>
<g>
</g>
</svg>
